<svg width="99" height="121" viewBox="0 0 99 121" fill="none" xmlns="http://www.w3.org/2000/svg">
<path d="M86.8552 53.048C86.8552 63.7905 82.4674 73.4739 75.4318 80.4338C68.5476 87.3181 59.0155 91.4789 48.5 91.4789C38.0601 91.4789 28.528 87.2424 21.5681 80.4338C14.5325 73.4739 10.1448 63.7905 10.1448 53.048C10.1448 31.79 27.3176 14.6172 48.5 14.6172C69.6823 14.6172 86.8552 31.8657 86.8552 53.048Z" fill="url(#paint0_linear_7080_185112)"/>
<g filter="url(#filter0_d_7080_185112)">
<path d="M75.8331 35.4288L76.4383 84.1483C76.4383 85.8126 75.0766 87.0987 73.4123 87.0987H25.9032C24.2389 87.0987 22.8772 85.7369 22.8772 84.1483V21.509C22.8772 19.8447 24.2389 18.5586 25.9032 18.5586H60.3246L75.8331 35.4288Z" fill="url(#paint1_linear_7080_185112)"/>
</g>
<path d="M47.6148 28.7716H30.8958C30.3663 28.7716 29.9124 28.3177 29.9124 27.7882C29.9124 27.2586 30.3663 26.8047 30.8958 26.8047H47.6148C48.1443 26.8047 48.5982 27.2586 48.5982 27.7882C48.5982 28.3177 48.1443 28.7716 47.6148 28.7716Z" fill="#E7E7E7"/>
<path d="M39.6714 34.2208H30.8958C30.3663 34.2208 29.9124 33.7669 29.9124 33.2374C29.9124 32.7078 30.3663 32.2539 30.8958 32.2539H39.5957C40.1253 32.2539 40.5792 32.7078 40.5792 33.2374C40.5792 33.7669 40.1253 34.2208 39.6714 34.2208Z" fill="#E7E7E7"/>
<path d="M60.3242 18.5586V32.0245C60.3242 33.9158 61.9885 35.4288 63.8798 35.4288H75.8327" fill="#E7E7E7"/>
<path d="M37.4275 28.5931L41.0222 15.9139L55.7868 17.6146L50.632 25.8775L54.6247 29.0675L46.0286 47.8697L46.5076 33.3131L37.4275 28.5931Z" fill="#F04438"/>
<path d="M40.6189 14.0603L37.7581 9.75391" stroke="#D92D20" stroke-width="2"/>
<path d="M48.2481 11.9085L48.5842 1" stroke="#D92D20" stroke-width="2"/>
<path d="M55.0858 14.1623L59.6526 4.25" stroke="#D92D20" stroke-width="2"/>
<path d="M39.5508 68.6145C39.233 68.6145 38.9788 68.4874 38.7245 68.2968C38.2796 67.8519 38.2796 67.0892 38.7245 66.6443C41.6482 63.7842 45.5251 62.1953 49.6563 62.1953C53.7875 62.1953 57.6645 63.7842 60.5881 66.6443C61.033 67.0892 61.033 67.8519 60.5881 68.2968C60.1432 68.7417 59.3805 68.7417 58.9356 68.2968C56.4569 65.818 53.1519 64.4834 49.6563 64.4834C46.1607 64.4834 42.8557 65.818 40.377 68.2968C40.1228 68.4874 39.8686 68.6145 39.5508 68.6145Z" fill="#D92D20"/>
<path d="M43.5549 51.5818L45.0802 50.0565C45.5251 49.6116 45.5251 48.8489 45.0802 48.404C44.6353 47.9591 43.8726 47.9591 43.4277 48.404L41.9024 49.9293L40.377 48.404C39.9321 47.9591 39.1694 47.9591 38.7245 48.404C38.2796 48.8489 38.2796 49.6116 38.7245 50.0565L40.2499 51.5818L38.7245 53.1072C38.2796 53.5521 38.2796 54.3148 38.7245 54.7597C38.9788 55.0139 39.233 55.0774 39.5508 55.0774C39.8686 55.0774 40.1228 54.9503 40.377 54.7597L41.9024 53.2343L43.4277 54.7597C43.682 55.0139 43.9362 55.0774 44.254 55.0774C44.5718 55.0774 44.826 54.9503 45.0802 54.7597C45.5251 54.3148 45.5251 53.5521 45.0802 53.1072L43.5549 51.5818Z" fill="#D92D20"/>
<path d="M59.0004 51.5818L60.5258 50.0565C60.9707 49.6116 60.9707 48.8489 60.5258 48.404C60.0809 47.9591 59.3182 47.9591 58.8733 48.404L57.3479 49.9293L55.8226 48.404C55.3777 47.9591 54.615 47.9591 54.1701 48.404C53.7252 48.8489 53.7252 49.6116 54.1701 50.0565L55.6955 51.5818L54.1701 53.1072C53.7252 53.5521 53.7252 54.3148 54.1701 54.7597C54.4243 55.0139 54.6785 55.0774 54.9963 55.0774C55.3141 55.0774 55.5683 54.9503 55.8226 54.7597L57.3479 53.2343L58.8733 54.7597C59.1275 55.0139 59.3817 55.0774 59.6995 55.0774C60.0173 55.0774 60.2715 54.9503 60.5258 54.7597C60.9707 54.3148 60.9707 53.5521 60.5258 53.1072L59.0004 51.5818Z" fill="#D92D20"/>
<defs>
<filter id="filter0_d_7080_185112" x="0.877197" y="7.55859" width="97.561" height="112.539" filterUnits="userSpaceOnUse" color-interpolation-filters="sRGB">
<feFlood flood-opacity="0" result="BackgroundImageFix"/>
<feColorMatrix in="SourceAlpha" type="matrix" values="0 0 0 0 0 0 0 0 0 0 0 0 0 0 0 0 0 0 127 0" result="hardAlpha"/>
<feOffset dy="11"/>
<feGaussianBlur stdDeviation="11"/>
<feColorMatrix type="matrix" values="0 0 0 0 0.397708 0 0 0 0 0.47749 0 0 0 0 0.575 0 0 0 0.27 0"/>
<feBlend mode="normal" in2="BackgroundImageFix" result="effect1_dropShadow_7080_185112"/>
<feBlend mode="normal" in="SourceGraphic" in2="effect1_dropShadow_7080_185112" result="shape"/>
</filter>
<linearGradient id="paint0_linear_7080_185112" x1="48.5" y1="14.6172" x2="48.5" y2="91.4789" gradientUnits="userSpaceOnUse">
<stop stop-color="#FFA39D" stop-opacity="0"/>
<stop offset="1" stop-color="#FF685D"/>
</linearGradient>
<linearGradient id="paint1_linear_7080_185112" x1="49.6403" y1="16.9732" x2="49.6403" y2="87.8376" gradientUnits="userSpaceOnUse">
<stop stop-color="white"/>
<stop offset="0.9964" stop-color="white"/>
</linearGradient>
</defs>
</svg>
