<svg width="224" height="26" viewBox="0 0 224 26" fill="none" xmlns="http://www.w3.org/2000/svg">
<g clip-path="url(#clip0_1558_10178)">
<path fill-rule="evenodd" clip-rule="evenodd" d="M132.254 11.758L122.908 1.16139H120.657V25.6657H126.897V14.7728L131.951 20.224H132.631L137.717 14.7728V25.6657H143.957V1.16139H141.775L132.254 11.758ZM73.835 17.0116C79.8681 12.8209 78.1634 1.26486 68.7806 1.23194H58.3135V25.6892H61.2267L64.4201 18.5026H67.5906L71.68 25.6657H78.4988V24.758L73.835 17.0116ZM68.7806 12.9244H64.4155V6.81008C65.8491 6.81008 67.347 6.77716 68.7806 6.81008C72.2589 6.84771 72.0843 12.9244 68.7806 12.9244ZM43.3388 25.6657H49.3122V24.758L38.528 0.912109H35.9043L25.1569 24.758V25.6657H31.1303L32.5087 22.5992H41.9374L43.3388 25.6657ZM39.9754 17.2515H34.5029L37.2185 10.8173L39.9754 17.2515ZM2.91315 25.6657L6.12956 19.4197H10.5269C21.9543 19.4197 21.9543 1.26486 10.5269 1.23194H0V25.6892L2.91315 25.6657ZM10.4717 13.7992H6.10658V6.81479C7.48505 6.81479 9.03811 6.78186 10.4717 6.81479C14.019 6.85241 13.8168 13.7992 10.4717 13.7992ZM105.682 25.6657H111.655V24.758L100.871 0.912109H98.2475L87.5001 24.758V25.6657H93.4735L94.8749 22.5992H104.304L105.682 25.6657ZM102.309 17.2515H96.8507L99.5433 10.8173L102.309 17.2515Z" fill="white"/>
<path d="M170.846 5.35757H163.325V25.5819H158.491V5.35757H150.974V0.729492H170.846V5.35757Z" fill="#00BBB4"/>
<path d="M186.551 16.9319C186.554 17.4538 186.525 17.9753 186.464 18.4934H174.563C175.046 20.9768 176.746 22.0586 178.878 22.0586C180.435 22.0245 181.933 21.4414 183.119 20.4077L185.77 23.3896C183.868 25.1816 181.442 25.9952 178.616 25.9952C173.47 25.9952 169.886 22.416 169.886 17.0025C169.886 11.589 173.35 7.90625 178.377 7.90625C183.215 7.91095 186.524 11.5795 186.551 16.9319ZM174.577 15.3375H182.002C181.589 13.1364 180.289 11.8947 178.327 11.8947C176.217 11.8994 174.968 13.2116 174.568 15.3422L174.577 15.3375Z" fill="#00BBB4"/>
<path d="M204.854 11.1564L201.6 13.9408C201.162 13.4029 200.613 12.9707 199.993 12.6748C199.373 12.3788 198.696 12.2266 198.012 12.2288C195.673 12.2288 193.803 14.1101 193.803 16.965C193.803 19.8199 195.641 21.7013 197.993 21.7013C198.692 21.696 199.381 21.538 200.015 21.2378C200.649 20.9377 201.213 20.5024 201.669 19.961L204.886 22.783C204.087 23.8225 203.06 24.6558 201.89 25.2161C200.719 25.7764 199.437 26.0481 198.145 26.0095C192.792 26.0095 189.208 22.181 189.208 16.965C189.208 11.749 192.792 7.92053 198.145 7.92053C199.433 7.88225 200.712 8.1553 201.877 8.71752C203.043 9.27974 204.062 10.1153 204.854 11.1564Z" fill="#00BBB4"/>
<path d="M212.651 10.2156C213.846 8.51302 215.633 7.911 217.467 7.911C221.281 7.911 224.001 10.6248 224.001 14.6132V25.5579H219.479V16.1042C219.479 13.6208 218.266 12.2569 216.203 12.2569C214.264 12.2569 212.651 13.5503 212.651 16.1418V25.5485H208.148V0H212.67L212.651 10.2156Z" fill="#00BBB4"/>
</g>
<defs>
<clipPath id="clip0_1558_10178">
<rect width="224" height="26" fill="white"/>
</clipPath>
</defs>
</svg>
