<svg width="15" height="9" viewBox="0 0 15 9" fill="none" xmlns="http://www.w3.org/2000/svg">
<path d="M6.73156 0.211684L0.437722 6.74588C0.320035 6.88575 0.257808 7.06672 0.263582 7.25232C0.269358 7.43792 0.342706 7.61435 0.468843 7.74605C0.594981 7.87774 0.764532 7.95492 0.943322 7.96203C1.12211 7.96913 1.29685 7.90563 1.43232 7.78433L7.22687 1.76833L13.0284 7.7833C13.0922 7.85918 13.1704 7.9206 13.2581 7.96375C13.3459 8.0069 13.4412 8.03085 13.5382 8.0341C13.6352 8.03735 13.7318 8.01984 13.822 7.98265C13.9123 7.94547 13.9941 7.88941 14.0626 7.81796C14.131 7.74651 14.1845 7.66121 14.2198 7.56736C14.2551 7.47352 14.2714 7.37313 14.2677 7.27247C14.264 7.1718 14.2403 7.073 14.1982 6.98223C14.1561 6.89146 14.0965 6.81065 14.023 6.74484L7.72914 0.210651C7.59574 0.0754257 7.41662 -0.000192584 7.23014 3.68354e-07C7.04367 0.00019332 6.86469 0.0761825 6.73156 0.211684Z" fill="#6F6F6F"/>
</svg>
