<svg width="24" height="25" viewBox="0 0 24 25" fill="none" xmlns="http://www.w3.org/2000/svg">
<path d="M21 12.377C21 17.3475 16.9706 21.377 12 21.377M21 12.377C21 7.40639 16.9706 3.37695 12 3.37695M21 12.377H3M12 21.377C7.02944 21.377 3 17.3475 3 12.377M12 21.377C13.6569 21.377 15 17.3475 15 12.377C15 7.40639 13.6569 3.37695 12 3.37695M12 21.377C10.3431 21.377 9 17.3475 9 12.377C9 7.40639 10.3431 3.37695 12 3.37695M3 12.377C3 7.40639 7.02944 3.37695 12 3.37695" stroke="#6F6F6F" stroke-width="1.5" stroke-linecap="round" stroke-linejoin="round"/>
</svg>
