<svg width="16" height="18" viewBox="0 0 16 18" fill="none" xmlns="http://www.w3.org/2000/svg">
<path d="M2.16667 17.3337H13.8333C14.2754 17.3337 14.6993 17.1581 15.0118 16.8455C15.3244 16.5329 15.5 16.109 15.5 15.667V8.16699C15.5 7.72496 15.3244 7.30104 15.0118 6.98848C14.6993 6.67592 14.2754 6.50033 13.8333 6.50033H12.1667V4.83366C12.1667 3.72859 11.7277 2.66878 10.9463 1.88738C10.1649 1.10598 9.10507 0.666992 8 0.666992C6.89493 0.666992 5.83512 1.10598 5.05372 1.88738C4.27232 2.66878 3.83333 3.72859 3.83333 4.83366V6.50033H2.16667C1.72464 6.50033 1.30072 6.67592 0.988155 6.98848C0.675595 7.30104 0.5 7.72496 0.5 8.16699V15.667C0.5 16.109 0.675595 16.5329 0.988155 16.8455C1.30072 17.1581 1.72464 17.3337 2.16667 17.3337ZM8 13.5837C7.67036 13.5837 7.34813 13.4859 7.07405 13.3028C6.79997 13.1196 6.58635 12.8593 6.4602 12.5548C6.33405 12.2503 6.30105 11.9151 6.36536 11.5918C6.42967 11.2685 6.5884 10.9716 6.82149 10.7385C7.05458 10.5054 7.35155 10.3467 7.67485 10.2823C7.99815 10.218 8.33326 10.251 8.6378 10.3772C8.94235 10.5033 9.20265 10.717 9.38578 10.991C9.56892 11.2651 9.66667 11.5874 9.66667 11.917C9.66667 12.359 9.49107 12.7829 9.17851 13.0955C8.86595 13.4081 8.44203 13.5837 8 13.5837ZM5.5 6.50033V4.83366C5.5 4.17062 5.76339 3.53473 6.23223 3.06589C6.70107 2.59705 7.33696 2.33366 8 2.33366C8.66304 2.33366 9.29893 2.59705 9.76777 3.06589C10.2366 3.53473 10.5 4.17062 10.5 4.83366V6.50033H5.5Z" fill="black"/>
</svg>
