<svg width="18" height="18" viewBox="0 0 18 18" fill="none" xmlns="http://www.w3.org/2000/svg">
<path d="M9.8068 1.47344C9.8068 1.02805 9.44574 0.666992 9.00035 0.666992C8.55496 0.666992 8.1939 1.02805 8.1939 1.47344V8.19387H1.47344C1.02805 8.19387 0.666992 8.55493 0.666992 9.00032C0.666992 9.44571 1.02805 9.80677 1.47344 9.80677H8.1939V16.5272C8.1939 16.9726 8.55496 17.3337 9.00035 17.3337C9.44574 17.3337 9.8068 16.9726 9.8068 16.5272V9.80677H16.5272C16.9726 9.80677 17.3337 9.44571 17.3337 9.00032C17.3337 8.55493 16.9726 8.19387 16.5272 8.19387H9.8068V1.47344Z" fill="#450D87"/>
</svg>
