<svg width="16" height="18" viewBox="0 0 16 18" fill="none" xmlns="http://www.w3.org/2000/svg">
<path d="M14.6177 17.0955L10.8324 13.1985C9.69028 13.9672 8.3498 14.3762 6.97934 14.3742C5.16971 14.3926 3.42692 13.6811 2.13382 12.3961C0.84073 11.111 0.103108 9.35753 0.0830078 7.52084C0.091594 6.61107 0.276848 5.71195 0.628168 4.87493C0.979488 4.03791 1.48998 3.27942 2.13043 2.64286C2.77088 2.0063 3.52871 1.50417 4.36056 1.16521C5.19242 0.826241 6.08196 0.657093 6.9783 0.66744C8.78756 0.649644 10.5298 1.36139 11.8225 2.64637C13.1151 3.93135 13.8524 5.68451 13.8725 7.52084C13.8699 9.27624 13.1939 10.9616 11.9877 12.2197L15.702 16.0574C15.7714 16.1283 15.8261 16.2125 15.8629 16.3052C15.8997 16.3979 15.9178 16.4971 15.9162 16.5969C15.9147 16.6968 15.8935 16.7954 15.8538 16.8868C15.8141 16.9783 15.7569 17.0607 15.6853 17.1294C15.5383 17.2664 15.3442 17.3396 15.1447 17.3333C14.9452 17.3269 14.756 17.2416 14.6177 17.0955ZM1.57436 7.52084C1.59526 8.95563 2.17586 10.3235 3.18887 11.3244C4.20187 12.3254 5.56461 12.8778 6.9783 12.8606C8.38925 12.8741 9.74806 12.32 10.7575 11.3193C11.7669 10.3186 12.3447 8.95283 12.3645 7.52084C12.3447 6.08884 11.7669 4.7231 10.7575 3.7224C9.74806 2.72171 8.38925 2.16753 6.9783 2.18112C5.56461 2.16386 4.20187 2.71627 3.18887 3.71724C2.17586 4.71821 1.59526 6.08604 1.57436 7.52084Z" fill="#450D87"/>
</svg>
