<svg width="12" height="13" viewBox="0 0 12 13" fill="none" xmlns="http://www.w3.org/2000/svg">
<path d="M9.93395 8.76837C9.93907 9.31591 10.3871 9.76393 10.9346 9.76905C11.4822 9.77416 11.9219 9.33444 11.9168 8.7869L11.8527 1.93679C11.8527 1.93532 11.8527 1.93385 11.8527 1.93238C11.8502 1.65861 11.7369 1.40972 11.5558 1.22863C11.3747 1.04754 11.1258 0.934254 10.852 0.931695C10.8506 0.931682 10.8491 0.931671 10.8477 0.931664L3.9975 0.86764C3.44996 0.862522 3.01024 1.30224 3.01536 1.84978C3.02048 2.39732 3.46849 2.84534 4.01603 2.85046L8.4771 2.89215L0.431 10.9382C0.0474495 11.3218 0.053316 11.9495 0.444104 12.3403C0.834892 12.7311 1.46262 12.737 1.84617 12.3534L9.89225 4.30733L9.93395 8.76837Z" fill="#F5F5FB"/>
</svg>
