<svg width="16" height="18" viewBox="0 0 16 18" fill="none" xmlns="http://www.w3.org/2000/svg">
<path d="M15.5 8.1663C15.5 7.72427 15.3244 7.30035 15.0118 6.98779C14.6993 6.67523 14.2754 6.49963 13.8333 6.49963H12.1667V4.83297C12.1669 3.91551 11.8644 3.02361 11.306 2.29566C10.7476 1.56772 9.96452 1.04443 9.07832 0.806991C8.19212 0.569556 7.25232 0.631252 6.40477 0.982506C5.55721 1.33376 4.84929 1.95493 4.39083 2.74963C4.28816 2.94042 4.26383 3.1637 4.323 3.37212C4.38217 3.58055 4.52019 3.75774 4.7078 3.86612C4.89541 3.9745 5.11785 4.00555 5.32796 3.95269C5.53808 3.89983 5.71934 3.76722 5.83333 3.58297C6.10814 3.10557 6.53294 2.73229 7.04171 2.52114C7.55048 2.30999 8.11475 2.27279 8.64684 2.41531C9.17893 2.55784 9.64906 2.87211 9.98417 3.3093C10.3193 3.74649 10.5006 4.28212 10.5 4.83297V6.49963H2.16667C1.72464 6.49963 1.30072 6.67523 0.988155 6.98779C0.675595 7.30035 0.5 7.72427 0.5 8.1663V15.6663C0.5 16.1083 0.675595 16.5323 0.988155 16.8448C1.30072 17.1574 1.72464 17.333 2.16667 17.333H13.8333C14.2754 17.333 14.6993 17.1574 15.0118 16.8448C15.3244 16.5323 15.5 16.1083 15.5 15.6663V8.1663ZM8 13.583C7.67036 13.583 7.34813 13.4852 7.07405 13.3021C6.79997 13.1189 6.58635 12.8587 6.4602 12.5541C6.33405 12.2496 6.30105 11.9145 6.36536 11.5912C6.42967 11.2678 6.5884 10.9709 6.82149 10.7378C7.05458 10.5047 7.35155 10.346 7.67485 10.2817C7.99815 10.2173 8.33326 10.2504 8.6378 10.3765C8.94235 10.5026 9.20265 10.7163 9.38578 10.9904C9.56892 11.2644 9.66667 11.5867 9.66667 11.9163C9.66667 12.3583 9.49107 12.7823 9.17851 13.0948C8.86595 13.4074 8.44203 13.583 8 13.583Z" fill="black"/>
</svg>
